<svg width="20" height="20" viewBox="0 0 20 20" fill="none" xmlns="http://www.w3.org/2000/svg">
<path d="M18.2832 6.5665C18.267 5.87509 18.1375 5.191 17.8998 4.5415C17.6901 3.98468 17.36 3.48102 16.9332 3.0665C16.5187 2.63964 16.015 2.30955 15.4582 2.09984C14.8087 1.8622 14.1246 1.73271 13.4332 1.7165C12.5498 1.6665 12.2665 1.6665 9.99984 1.6665C7.73317 1.6665 7.44984 1.6665 6.5665 1.7165C5.87509 1.73271 5.191 1.8622 4.5415 2.09984C3.98468 2.30955 3.48102 2.63964 3.0665 3.0665C2.63936 3.47915 2.31165 3.98354 2.10817 4.5415C1.8633 5.18929 1.73085 5.87413 1.7165 6.5665C1.6665 7.44984 1.6665 7.73317 1.6665 9.99984C1.6665 12.2665 1.6665 12.5498 1.7165 13.4332C1.73085 14.1255 1.8633 14.8104 2.10817 15.4582C2.31165 16.0162 2.63936 16.5205 3.0665 16.9332C3.48102 17.36 3.98468 17.6901 4.5415 17.8998C5.191 18.1375 5.87509 18.267 6.5665 18.2832C7.44984 18.3332 7.73317 18.3332 9.99984 18.3332C12.2665 18.3332 12.5498 18.3332 13.4332 18.2832C14.1246 18.267 14.8087 18.1375 15.4582 17.8998C16.011 17.6823 16.5132 17.3533 16.9333 16.9333C17.3533 16.5132 17.6823 16.011 17.8998 15.4582C18.1375 14.8087 18.267 14.1246 18.2832 13.4332C18.2832 12.5498 18.3332 12.2665 18.3332 9.99984C18.3332 7.73317 18.3332 7.44984 18.2832 6.5665ZM16.7832 13.3332C16.7771 13.8622 16.6813 14.3863 16.4998 14.8832C16.3604 15.2426 16.1476 15.569 15.8749 15.8416C15.6023 16.1143 15.2759 16.3271 14.9165 16.4665C14.4196 16.648 13.8955 16.7438 13.3665 16.7498C12.5332 16.7915 12.2248 16.7998 10.0332 16.7998C7.8415 16.7998 7.53317 16.7998 6.69984 16.7498C6.15045 16.7622 5.60318 16.6775 5.08317 16.4998C4.72375 16.3604 4.39732 16.1476 4.12471 15.8749C3.8521 15.6023 3.63929 15.2759 3.49984 14.9165C3.31463 14.4091 3.21876 13.8733 3.2165 13.3332C3.2165 12.4998 3.1665 12.1915 3.1665 9.99984C3.1665 7.80817 3.1665 7.49984 3.2165 6.6665C3.21876 6.12632 3.31463 5.59061 3.49984 5.08317C3.63929 4.72375 3.8521 4.39732 4.12471 4.12471C4.39732 3.8521 4.72375 3.63929 5.08317 3.49984C5.59061 3.31463 6.12632 3.21876 6.6665 3.2165C7.49984 3.2165 7.80817 3.1665 9.99984 3.1665C12.1915 3.1665 12.4998 3.1665 13.3332 3.2165C13.8622 3.22257 14.3863 3.31838 14.8832 3.49984C15.2426 3.63929 15.569 3.8521 15.8416 4.12471C16.1143 4.39732 16.3271 4.72375 16.4665 5.08317C16.6631 5.58859 16.7703 6.12435 16.7832 6.6665C16.8248 7.49984 16.8332 7.80817 16.8332 9.99984C16.8332 12.1915 16.8248 12.4998 16.7832 13.3332Z" fill="white"/>
<path d="M10.0001 5.7168C9.15297 5.7168 8.32483 5.96801 7.62044 6.43867C6.91605 6.90933 6.36704 7.5783 6.04285 8.36096C5.71865 9.14363 5.63383 10.0049 5.7991 10.8358C5.96437 11.6666 6.37232 12.4299 6.97136 13.0289C7.57039 13.628 8.33363 14.0359 9.16447 14.2011C9.99538 14.3665 10.8566 14.2816 11.6393 13.9574C12.422 13.6332 13.091 13.0842 13.5616 12.3798C14.0322 11.6755 14.2835 10.8473 14.2835 10.0001C14.2835 8.86413 13.8322 7.77464 13.0289 6.97136C12.2256 6.16807 11.1361 5.7168 10.0001 5.7168ZM10.0001 12.7751C9.4513 12.7751 8.9148 12.6124 8.45847 12.3075C8.00208 12.0025 7.6464 11.5691 7.43637 11.062C7.22633 10.555 7.17138 9.99705 7.27846 9.45871C7.38552 8.92046 7.64982 8.42596 8.03791 8.03791C8.42597 7.64982 8.92047 7.38552 9.45872 7.27845C9.99705 7.17138 10.555 7.22633 11.062 7.43636C11.5691 7.6464 12.0025 8.00208 12.3075 8.45846C12.6124 8.9148 12.7751 9.4513 12.7751 10.0001C12.7751 10.3645 12.7034 10.7254 12.5639 11.062C12.4245 11.3988 12.22 11.7046 11.9624 11.9624C11.7046 12.22 11.3988 12.4245 11.062 12.5639C10.7254 12.7034 10.3645 12.7751 10.0001 12.7751Z" fill="white"/>
<path d="M14.4502 4.5498C14.2524 4.5498 14.0591 4.60845 13.8946 4.71833C13.7302 4.82821 13.602 4.9844 13.5263 5.16712C13.4506 5.34985 13.4308 5.55091 13.4694 5.74489C13.508 5.93887 13.6032 6.11705 13.7431 6.2569C13.8829 6.39676 14.0611 6.492 14.2551 6.53059C14.4491 6.56917 14.6501 6.54937 14.8328 6.47368C15.0156 6.398 15.1718 6.26982 15.2817 6.10537C15.3915 5.94092 15.4502 5.74758 15.4502 5.5498C15.4502 5.28459 15.3448 5.03023 15.1573 4.8427C14.9698 4.65515 14.7154 4.5498 14.4502 4.5498Z" fill="white"/>
</svg>
