<svg width="566" height="139" viewBox="0 0 566 139" fill="none" xmlns="http://www.w3.org/2000/svg">
<g clip-path="url(#clip0_87_826)">
<mask id="mask0_87_826" style="mask-type:luminance" maskUnits="userSpaceOnUse" x="-1" y="0" width="85" height="114">
<path d="M-0.00732422 0.000488281H83.1181V113.13H-0.00732422V0.000488281Z" fill="white"/>
</mask>
<g mask="url(#mask0_87_826)">
<path fill-rule="evenodd" clip-rule="evenodd" d="M65.1839 72.499C65.1839 59.114 54.933 48.9164 41.315 48.9164C28.023 48.9164 17.4527 59.4318 17.4527 72.499C17.4527 85.725 28.023 96.237 41.315 96.237C54.933 96.237 65.1839 86.0428 65.1839 72.499ZM83.1206 0.000488281V111.538H65.1839V97.8324C59.5777 107.553 49.9689 113.13 37.4721 113.13C16.6508 113.13 -0.00488281 94.9661 -0.00488281 72.499C-0.00488281 50.0285 16.6508 32.0297 37.4721 32.0297C49.9689 32.0297 59.5777 37.6068 65.1839 47.3244V0.000488281H83.1206Z" fill="white"/>
</g>
<path fill-rule="evenodd" clip-rule="evenodd" d="M156.957 72.5018C156.957 59.1135 146.706 48.9159 133.091 48.9159C119.799 48.9159 109.229 59.4312 109.229 72.5018C109.229 85.7245 119.799 96.2365 133.091 96.2365C146.706 96.2365 156.957 86.0423 156.957 72.5018ZM174.897 33.6212V111.538H156.957V97.8352C151.351 107.55 141.742 113.13 129.248 113.13C108.424 113.13 91.7681 94.9656 91.7681 72.5018C91.7681 50.0313 108.424 32.0259 129.248 32.0259C141.742 32.0259 151.351 37.6029 156.957 47.3206V33.6212H174.897Z" fill="white"/>
<path fill-rule="evenodd" clip-rule="evenodd" d="M242.644 33.6177L221.666 86.6775L200.682 33.6177H181.461L212.54 107.394L198.439 138.943H217.657L261.865 33.6177H242.644Z" fill="white"/>
<path fill-rule="evenodd" clip-rule="evenodd" d="M300.177 72.6583C300.177 85.8844 310.105 96.0819 323.077 96.0819C336.053 96.0819 346.145 85.8844 346.145 72.6583C346.145 59.2767 336.053 49.0758 323.077 49.0758C310.105 49.0758 300.177 59.2767 300.177 72.6583ZM363.762 72.6583C363.762 95.7576 345.988 113.128 323.077 113.128C300.177 113.128 282.556 95.7576 282.556 72.6583C282.556 49.5557 300.177 32.0269 323.077 32.0269C345.988 32.0269 363.762 49.5557 363.762 72.6583Z" fill="white"/>
<path fill-rule="evenodd" clip-rule="evenodd" d="M447.842 67.0812V111.536H429.906V69.3121C429.906 57.0458 422.376 49.0725 411.004 49.0725C399.313 49.0725 391.62 57.0458 391.62 69.3121V111.536H373.843V33.6222H391.62V45.8884C396.591 37.124 404.915 32.0269 415.333 32.0269C435.349 32.0269 447.842 45.4151 447.842 67.0812Z" fill="white"/>
<path fill-rule="evenodd" clip-rule="evenodd" d="M517.039 63.2559C516.077 53.535 507.912 46.6836 497.175 46.6836C486.442 46.6836 478.916 53.0584 476.194 63.2559H517.039ZM535.135 76.7998H475.552C477.472 89.3903 486.123 97.0327 498.776 97.0327C507.583 97.0327 515.595 93.2132 519.278 87.1529L533.531 96.2417C527.765 106.754 514.63 113.125 498.456 113.125C475.872 113.125 457.775 95.444 457.775 72.1792C457.775 49.5533 475.552 32.0244 498.137 32.0244C519.278 32.0244 535.777 48.279 535.777 69.1507C535.777 71.226 535.614 74.4134 535.135 76.7998Z" fill="white"/>
<mask id="mask1_87_826" style="mask-type:luminance" maskUnits="userSpaceOnUse" x="540" y="23" width="26" height="27">
<path d="M540.329 23.6343H565.875V49.0504H540.329V23.6343Z" fill="white"/>
</mask>
<g mask="url(#mask1_87_826)">
<path fill-rule="evenodd" clip-rule="evenodd" d="M550.904 35.3525H553.595C554.7 35.3525 555.512 34.5449 555.512 33.4825C555.512 32.4564 554.7 31.6819 553.595 31.6819H550.867L550.904 35.3525ZM555.479 37.4344L559.308 43.3325H556.224L552.82 37.7555H550.904V43.3325H548.349V29.2889H553.672C556.048 29.2889 558.07 31.1491 558.07 33.4825C558.07 35.3889 557.076 36.8353 555.479 37.4344ZM564.136 36.3422C564.136 30.2686 559.168 25.2907 553.103 25.2907C547.034 25.2907 542.1 30.2686 542.1 36.3422C542.1 42.419 547.034 47.3904 553.103 47.3904C559.168 47.3904 564.136 42.419 564.136 36.3422ZM565.876 36.3422C565.876 43.3325 560.13 49.0519 553.07 49.0519C546.076 49.0519 540.33 43.3325 540.33 36.3422C540.33 29.3518 546.076 23.6357 553.07 23.6357C560.13 23.6357 565.876 29.3518 565.876 36.3422Z" fill="white"/>
</g>
</g>
<defs>
<clipPath id="clip0_87_826">
<rect width="565.878" height="138.943" fill="white"/>
</clipPath>
</defs>
</svg>
