<svg width="102" height="25" viewBox="0 0 102 25" fill="none" xmlns="http://www.w3.org/2000/svg">
<g clip-path="url(#clip0_2346_130)">
<mask id="mask0_2346_130" style="mask-type:luminance" maskUnits="userSpaceOnUse" x="-1" y="0" width="16" height="21">
<path d="M-0.000976562 0H14.9069V20.2888H-0.000976562V0Z" fill="white"/>
</mask>
<g mask="url(#mask0_2346_130)">
<path fill-rule="evenodd" clip-rule="evenodd" d="M11.6911 13.002C11.6911 10.6015 9.85267 8.77269 7.41039 8.77269C5.02658 8.77269 3.13087 10.6585 3.13087 13.002C3.13087 15.374 5.02658 17.2593 7.41039 17.2593C9.85267 17.2593 11.6911 15.431 11.6911 13.002ZM14.9079 0V20.0034H11.6911V17.5454C10.6857 19.2888 8.9624 20.289 6.7212 20.289C2.98707 20.289 0 17.0313 0 13.002C0 8.97214 2.98707 5.74419 6.7212 5.74419C8.9624 5.74419 10.6857 6.74439 11.6911 8.48717V0H14.9079Z" fill="white"/>
</g>
<path fill-rule="evenodd" clip-rule="evenodd" d="M28.1491 13.0026C28.1491 10.6015 26.3107 8.77263 23.869 8.77263C21.4852 8.77263 19.5895 10.6585 19.5895 13.0026C19.5895 15.374 21.4852 17.2592 23.869 17.2592C26.3107 17.2592 28.1491 15.4309 28.1491 13.0026ZM31.3665 6.02964V20.0034H28.1491V17.5459C27.1437 19.2881 25.4204 20.2889 23.1798 20.2889C19.4451 20.2889 16.458 17.0313 16.458 13.0026C16.458 8.97267 19.4451 5.74353 23.1798 5.74353C25.4204 5.74353 27.1437 6.74373 28.1491 8.48652V6.02964H31.3665Z" fill="white"/>
<path fill-rule="evenodd" clip-rule="evenodd" d="M43.5166 6.02905L39.7544 15.5449L35.9911 6.02905H32.5439L38.1177 19.2602L35.5889 24.9183H39.0354L46.9637 6.02905H43.5166Z" fill="white"/>
<path fill-rule="evenodd" clip-rule="evenodd" d="M53.8349 13.0306C53.8349 15.4026 55.6155 17.2314 57.942 17.2314C60.2691 17.2314 62.0789 15.4026 62.0789 13.0306C62.0789 10.6307 60.2691 8.80124 57.942 8.80124C55.6155 8.80124 53.8349 10.6307 53.8349 13.0306ZM65.2384 13.0306C65.2384 17.1733 62.0508 20.2884 57.942 20.2884C53.8349 20.2884 50.6748 17.1733 50.6748 13.0306C50.6748 8.88731 53.8349 5.74365 57.942 5.74365C62.0508 5.74365 65.2384 8.88731 65.2384 13.0306Z" fill="white"/>
<path fill-rule="evenodd" clip-rule="evenodd" d="M80.3171 12.0304V20.0029H77.1003V12.4305C77.1003 10.2306 75.7499 8.80065 73.7104 8.80065C71.6136 8.80065 70.2341 10.2306 70.2341 12.4305V20.0029H67.0459V6.02976H70.2341V8.22961C71.1255 6.65778 72.6185 5.74365 74.4867 5.74365C78.0765 5.74365 80.3171 8.14473 80.3171 12.0304Z" fill="white"/>
<path fill-rule="evenodd" clip-rule="evenodd" d="M92.727 11.3444C92.5546 9.60104 91.0903 8.3723 89.1647 8.3723C87.2398 8.3723 85.89 9.51556 85.4019 11.3444H92.727ZM95.9725 13.7734H85.2868C85.6311 16.0314 87.1825 17.402 89.4517 17.402C91.0312 17.402 92.468 16.717 93.1286 15.6301L95.6848 17.2601C94.6508 19.1454 92.295 20.2881 89.3945 20.2881C85.3441 20.2881 82.0986 17.1171 82.0986 12.9447C82.0986 8.88695 85.2868 5.74329 89.3372 5.74329C93.1286 5.74329 96.0876 8.65841 96.0876 12.4016C96.0876 12.7738 96.0584 13.3454 95.9725 13.7734Z" fill="white"/>
<mask id="mask1_2346_130" style="mask-type:luminance" maskUnits="userSpaceOnUse" x="96" y="4" width="6" height="5">
<path d="M96.9043 4.23853H101.486V8.79672H96.9043V4.23853Z" fill="white"/>
</mask>
<g mask="url(#mask1_2346_130)">
<path fill-rule="evenodd" clip-rule="evenodd" d="M98.8006 6.34008H99.2833C99.4814 6.34008 99.627 6.19525 99.627 6.0047C99.627 5.82069 99.4814 5.68179 99.2833 5.68179H98.794L98.8006 6.34008ZM99.6211 6.71345L100.308 7.77123H99.7547L99.1443 6.77103H98.8006V7.77123H98.3423V5.25262H99.2971C99.7231 5.25262 100.086 5.58622 100.086 6.0047C100.086 6.34661 99.9075 6.60601 99.6211 6.71345ZM101.174 6.51757C101.174 5.42833 100.283 4.53557 99.195 4.53557C98.1066 4.53557 97.2217 5.42833 97.2217 6.51757C97.2217 7.6074 98.1066 8.49898 99.195 8.49898C100.283 8.49898 101.174 7.6074 101.174 6.51757ZM101.486 6.51757C101.486 7.77123 100.455 8.79696 99.1891 8.79696C97.9348 8.79696 96.9043 7.77123 96.9043 6.51757C96.9043 5.2639 97.9348 4.23877 99.1891 4.23877C100.455 4.23877 101.486 5.2639 101.486 6.51757Z" fill="white"/>
</g>
</g>
<defs>
<clipPath id="clip0_2346_130">
<rect width="101.486" height="24.9184" fill="white"/>
</clipPath>
</defs>
</svg>
