<svg width="160" height="65" viewBox="0 0 160 65" fill="none" xmlns="http://www.w3.org/2000/svg">
<g clip-path="url(#clip0_87_640)">
<mask id="mask0_87_640" style="mask-type:luminance" maskUnits="userSpaceOnUse" x="0" y="34" width="44" height="31">
<path d="M0 34.8137H43.304V64.675H0V34.8137Z" fill="white"/>
</mask>
<g mask="url(#mask0_87_640)">
<path fill-rule="evenodd" clip-rule="evenodd" d="M43.304 35.4114L14.3557 64.6752L6.82473 57.0616L11.3432 52.4945C12.8759 50.9439 12.8759 48.4313 11.3432 46.8812L0 35.4144L0.594283 34.8137C4.28741 38.3538 12.3281 41.8976 21.6532 41.8976C30.9789 41.8976 39.019 38.3538 42.7121 34.8137L43.304 35.4114Z" fill="white"/>
</g>
<mask id="mask1_87_640" style="mask-type:luminance" maskUnits="userSpaceOnUse" x="0" y="0" width="44" height="30">
<path d="M0 8.2016e-05H43.304V29.8612H0V8.2016e-05Z" fill="white"/>
</mask>
<g mask="url(#mask1_87_640)">
<path fill-rule="evenodd" clip-rule="evenodd" d="M0 29.2634L28.9484 -0.000434875L36.4793 7.61319L31.9609 12.1803C30.4281 13.7309 30.4281 16.2435 31.9609 17.7936L43.304 29.2604L42.7098 29.8611C39.0166 26.321 30.976 22.7772 21.6508 22.7772C12.3251 22.7772 4.28503 26.321 0.591901 29.8611L0 29.2634Z" fill="white"/>
</g>
</g>
<g clip-path="url(#clip1_87_640)">
<mask id="mask2_87_640" style="mask-type:luminance" maskUnits="userSpaceOnUse" x="57" y="19" width="16" height="22">
<path d="M57.9263 19.9649H72.9206V40.3417H57.9263V19.9649Z" fill="white"/>
</mask>
<g mask="url(#mask2_87_640)">
<path fill-rule="evenodd" clip-rule="evenodd" d="M69.6851 33.0233C69.6851 30.6124 67.836 28.7757 65.3796 28.7757C62.982 28.7757 61.0753 30.6697 61.0753 33.0233C61.0753 35.4056 62.982 37.299 65.3796 37.299C67.836 37.299 69.6851 35.4628 69.6851 33.0233ZM72.9206 19.9649V40.0551H69.6851V37.5864C68.6739 39.3373 66.9406 40.3418 64.6864 40.3418C60.9306 40.3418 57.9263 37.0701 57.9263 33.0233C57.9263 28.976 60.9306 25.734 64.6864 25.734C66.9406 25.734 68.6739 26.7386 69.6851 28.4889V19.9649H72.9206Z" fill="white"/>
</g>
<path fill-rule="evenodd" clip-rule="evenodd" d="M86.2393 33.0239C86.2393 30.6124 84.3902 28.7756 81.9344 28.7756C79.5368 28.7756 77.6301 30.6697 77.6301 33.0239C77.6301 35.4056 79.5368 37.299 81.9344 37.299C84.3902 37.299 86.2393 35.4628 86.2393 33.0239ZM89.4754 26.0208V40.0551H86.2393V37.587C85.2281 39.3367 83.4948 40.3418 81.2412 40.3418C77.4848 40.3418 74.4805 37.0701 74.4805 33.0239C74.4805 28.9766 77.4848 25.7334 81.2412 25.7334C83.4948 25.7334 85.2281 26.738 86.2393 28.4883V26.0208H89.4754Z" fill="white"/>
<path fill-rule="evenodd" clip-rule="evenodd" d="M101.695 26.0202L97.911 35.5773L94.1258 26.0202H90.6587L96.2647 39.3087L93.7213 44.9913H97.1878L105.162 26.0202H101.695Z" fill="white"/>
<path fill-rule="evenodd" clip-rule="evenodd" d="M112.073 33.0521C112.073 35.4344 113.864 37.2712 116.204 37.2712C118.544 37.2712 120.365 35.4344 120.365 33.0521C120.365 30.6418 118.544 28.8044 116.204 28.8044C113.864 28.8044 112.073 30.6418 112.073 33.0521ZM123.543 33.0521C123.543 37.2127 120.336 40.3414 116.204 40.3414C112.073 40.3414 108.895 37.2127 108.895 33.0521C108.895 28.8909 112.073 25.7336 116.204 25.7336C120.336 25.7336 123.543 28.8909 123.543 33.0521Z" fill="white"/>
<path fill-rule="evenodd" clip-rule="evenodd" d="M138.71 32.0477V40.0548H135.474V32.4495C135.474 30.2401 134.116 28.804 132.065 28.804C129.956 28.804 128.568 30.2401 128.568 32.4495V40.0548H125.362V26.0211H128.568V28.2305C129.465 26.6518 130.967 25.7337 132.846 25.7337C136.456 25.7337 138.71 28.1452 138.71 32.0477Z" fill="white"/>
<path fill-rule="evenodd" clip-rule="evenodd" d="M151.191 31.3587C151.017 29.6078 149.545 28.3737 147.608 28.3737C145.672 28.3737 144.314 29.5219 143.823 31.3587H151.191ZM154.455 33.7982H143.708C144.054 36.066 145.614 37.4426 147.897 37.4426C149.485 37.4426 150.93 36.7546 151.595 35.663L154.166 37.3001C153.126 39.1935 150.756 40.3411 147.839 40.3411C143.765 40.3411 140.501 37.1564 140.501 32.966C140.501 28.8906 143.708 25.7333 147.781 25.7333C151.595 25.7333 154.571 28.6611 154.571 32.4205C154.571 32.7943 154.542 33.3684 154.455 33.7982Z" fill="white"/>
<mask id="mask3_87_640" style="mask-type:luminance" maskUnits="userSpaceOnUse" x="155" y="24" width="5" height="5">
<path d="M155.392 24.2223H160V28.8003H155.392V24.2223Z" fill="white"/>
</mask>
<g mask="url(#mask3_87_640)">
<path fill-rule="evenodd" clip-rule="evenodd" d="M157.299 26.3327H157.785C157.984 26.3327 158.131 26.1873 158.131 25.9959C158.131 25.8111 157.984 25.6716 157.785 25.6716H157.293L157.299 26.3327ZM158.125 26.7077L158.815 27.7701H158.259L157.645 26.7655H157.299V27.7701H156.838V25.2406H157.799C158.227 25.2406 158.592 25.5756 158.592 25.9959C158.592 26.3393 158.413 26.5998 158.125 26.7077ZM159.686 26.511C159.686 25.417 158.79 24.5204 157.696 24.5204C156.601 24.5204 155.711 25.417 155.711 26.511C155.711 27.6055 156.601 28.501 157.696 28.501C158.79 28.501 159.686 27.6055 159.686 26.511ZM160 26.511C160 27.7701 158.964 28.8003 157.69 28.8003C156.429 28.8003 155.392 27.7701 155.392 26.511C155.392 25.2519 156.429 24.2223 157.69 24.2223C158.964 24.2223 160 25.2519 160 26.511Z" fill="white"/>
</g>
</g>
<defs>
<clipPath id="clip0_87_640">
<rect width="43.304" height="64.6749" fill="white"/>
</clipPath>
<clipPath id="clip1_87_640">
<rect width="102.074" height="25.0264" fill="white" transform="translate(57.9263 19.9649)"/>
</clipPath>
</defs>
</svg>
