<svg width="396" height="139" viewBox="0 0 396 139" fill="none" xmlns="http://www.w3.org/2000/svg">
<path d="M0.190918 104.487L45.6045 85.7443C46.7138 85.2865 47.9736 85.9018 48.2946 87.0581L55.3234 112.381C55.6131 113.425 56.6806 114.048 57.7317 113.788L95.022 104.545C95.1794 104.506 95.3409 104.487 95.5031 104.487H98.8952C99.3747 104.487 99.8382 104.659 100.201 104.972L137.385 137.033C138.681 138.15 140.691 137.229 140.691 135.518V129.383C140.691 128.279 141.586 127.383 142.691 127.383H160.075L253.381 128.862C254.176 128.875 254.904 128.415 255.233 127.69L259.588 118.109C259.656 117.959 259.706 117.801 259.735 117.639L262.303 103.515C262.512 102.366 261.696 101.284 260.535 101.168L244.492 99.5633C243.47 99.461 242.691 98.6007 242.691 97.5732V77.5948C242.691 77.1345 242.532 76.6883 242.241 76.3315L223.147 52.8975C222.119 51.6361 222.948 49.7407 224.571 49.6381L267.866 46.9037C268.081 46.8901 268.293 46.8418 268.492 46.7607L301.822 33.2278C302.111 33.1103 302.369 32.9265 302.575 32.6913L311.007 23.0475C311.387 22.6131 311.936 22.3639 312.513 22.3639H316.658C317.331 22.3639 317.959 22.0252 318.329 21.4627L320.485 18.1833C320.781 17.7331 320.883 17.1826 320.768 16.6564L318.328 5.52506C318.036 4.19475 319.131 2.96844 320.486 3.10732L347.517 5.87837H354.24C354.616 5.87837 354.985 5.77238 355.303 5.57255L362.901 0.805808C363.334 0.534389 363.854 0.438756 364.355 0.538514L375.436 2.74547C375.701 2.79827 375.952 2.90424 376.175 3.05699L383.793 8.27592C384.126 8.50394 384.52 8.62597 384.924 8.62597H395.691" stroke="url(#paint0_linear_87_627)"/>
<defs>
<linearGradient id="paint0_linear_87_627" x1="332.411" y1="0.383202" x2="105.599" y2="133.807" gradientUnits="userSpaceOnUse">
<stop stop-color="#C75D5F"/>
<stop offset="1" stop-color="#7D1316"/>
</linearGradient>
</defs>
</svg>
