<svg width="369" height="193" viewBox="0 0 369 193" fill="none" xmlns="http://www.w3.org/2000/svg">
<path d="M32.2591 133.954L21.6509 128.636C21.1466 128.383 20.7726 127.929 20.6209 127.386L0.574616 55.6065C0.258212 54.4736 0.983119 53.3136 2.14012 53.1014L60.6677 42.3674C60.9625 42.3133 61.2657 42.3262 61.5549 42.4051L72.346 45.349C73.8939 45.7713 75.2839 44.2906 74.7648 42.7724L72.9913 37.5859C72.6163 36.4895 73.2487 35.3049 74.3684 35.0063L81.4938 33.1063C82.1163 32.9403 82.6207 32.4847 82.8488 31.8823L94.2466 1.79235C94.6495 0.728642 95.8572 0.214673 96.9031 0.661826L162.329 28.6337C163.27 29.0362 163.756 30.0849 163.453 31.0632L160.518 40.5632C160.215 41.5418 160.701 42.5908 161.643 42.993L169.265 46.2478C169.411 46.3103 169.565 46.3551 169.722 46.3813L186.833 49.2331C187.256 49.3038 187.646 49.5091 187.944 49.8186L200.19 62.5351C200.385 62.7374 200.62 62.8964 200.88 63.0017L219.874 70.6896C220.798 71.0637 221.305 72.0613 221.064 73.0286L219.382 79.7567C219.151 80.6792 219.602 81.6364 220.46 82.0464L239.008 90.909C239.867 91.3197 240.318 92.2795 240.084 93.2031L234.36 115.879C234.181 116.587 234.402 117.337 234.938 117.834L248.329 130.268C249.007 130.898 250.028 130.98 250.799 130.468L270.598 117.285C270.853 117.116 271.065 116.89 271.219 116.626L288.459 86.972C288.917 86.185 289.848 85.8062 290.725 86.0506L320.485 94.3419L342.913 100.292C344.034 100.589 345.171 99.875 345.39 98.7368L347.014 90.2913C347.256 89.0345 348.6 88.325 349.774 88.834L366.83 96.2281C367.67 96.5921 368.155 97.4798 368.009 98.3832L365.036 116.713C365.003 116.921 365.002 117.134 365.035 117.342L367.99 136.24C368.144 137.224 367.55 138.171 366.597 138.462L326.186 150.781C326.053 150.821 325.915 150.848 325.776 150.86L281.812 154.683C280.779 154.773 279.985 155.638 279.985 156.676V177.494C279.985 178.036 279.766 178.555 279.376 178.931L266.015 191.862C265.186 192.664 263.852 192.601 263.103 191.724L223.485 145.342L213.051 132.104C212.672 131.623 212.093 131.342 211.48 131.342H202.135C202.035 131.342 201.936 131.334 201.837 131.32L166.633 126.019C166.535 126.004 166.435 125.997 166.336 125.997H92.154C91.8428 125.997 91.5359 126.069 91.2577 126.209L87.5288 128.078C87.3165 128.184 87.0869 128.252 86.8509 128.278L33.3738 134.154C32.9908 134.196 32.6037 134.126 32.2591 133.954Z" stroke="url(#paint0_linear_87_596)"/>
<defs>
<linearGradient id="paint0_linear_87_596" x1="309.334" y1="-0.158048" x2="63.4037" y2="96.9592" gradientUnits="userSpaceOnUse">
<stop stop-color="#C75D5F"/>
<stop offset="1" stop-color="#7D1316"/>
</linearGradient>
</defs>
</svg>
