<svg width="132" height="25" viewBox="0 0 132 25" fill="none" xmlns="http://www.w3.org/2000/svg">
<g clip-path="url(#clip0_87_575)">
<mask id="mask0_87_575" style="mask-type:luminance" maskUnits="userSpaceOnUse" x="-1" y="0" width="16" height="21">
<path d="M-0.00146484 0H14.9064V20.2888H-0.00146484V0Z" fill="white"/>
</mask>
<g mask="url(#mask0_87_575)">
<path fill-rule="evenodd" clip-rule="evenodd" d="M11.6901 13.002C11.6901 10.6015 9.8517 8.77269 7.40941 8.77269C5.02561 8.77269 3.1299 10.6585 3.1299 13.002C3.1299 15.374 5.02561 17.2593 7.40941 17.2593C9.8517 17.2593 11.6901 15.431 11.6901 13.002ZM14.9069 0V20.0034H11.6901V17.5454C10.6847 19.2888 8.96142 20.289 6.72023 20.289C2.98609 20.289 -0.000976562 17.0313 -0.000976562 13.002C-0.000976562 8.97214 2.98609 5.74419 6.72023 5.74419C8.96142 5.74419 10.6847 6.74439 11.6901 8.48717V0H14.9069Z" fill="white"/>
</g>
<path fill-rule="evenodd" clip-rule="evenodd" d="M28.1491 13.0027C28.1491 10.6016 26.3107 8.77275 23.869 8.77275C21.4852 8.77275 19.5895 10.6586 19.5895 13.0027C19.5895 15.3741 21.4852 17.2593 23.869 17.2593C26.3107 17.2593 28.1491 15.4311 28.1491 13.0027ZM31.3665 6.02976V20.0035H28.1491V17.546C27.1437 19.2882 25.4204 20.289 23.1798 20.289C19.4451 20.289 16.458 17.0314 16.458 13.0027C16.458 8.97279 19.4451 5.74365 23.1798 5.74365C25.4204 5.74365 27.1437 6.74385 28.1491 8.48664V6.02976H31.3665Z" fill="white"/>
<path fill-rule="evenodd" clip-rule="evenodd" d="M43.5161 6.02905L39.754 15.5449L35.9906 6.02905H32.5435L38.1172 19.2602L35.5884 24.9183H39.0349L46.9633 6.02905H43.5161Z" fill="white"/>
<path fill-rule="evenodd" clip-rule="evenodd" d="M53.8344 13.0308C53.8344 15.4028 55.615 17.2317 57.9415 17.2317C60.2686 17.2317 62.0784 15.4028 62.0784 13.0308C62.0784 10.6309 60.2686 8.80149 57.9415 8.80149C55.615 8.80149 53.8344 10.6309 53.8344 13.0308ZM65.2379 13.0308C65.2379 17.1735 62.0504 20.2887 57.9415 20.2887C53.8344 20.2887 50.6743 17.1735 50.6743 13.0308C50.6743 8.88756 53.8344 5.7439 57.9415 5.7439C62.0504 5.7439 65.2379 8.88756 65.2379 13.0308Z" fill="white"/>
<path fill-rule="evenodd" clip-rule="evenodd" d="M80.3171 12.0306V20.0032H77.1003V12.4307C77.1003 10.2309 75.7499 8.80089 73.7104 8.80089C71.6136 8.80089 70.2341 10.2309 70.2341 12.4307V20.0032H67.0459V6.03001H70.2341V8.22986C71.1255 6.65803 72.6185 5.7439 74.4867 5.7439C78.0765 5.7439 80.3171 8.14497 80.3171 12.0306Z" fill="white"/>
<path fill-rule="evenodd" clip-rule="evenodd" d="M92.7265 11.3445C92.5541 9.60116 91.0898 8.37242 89.1642 8.37242C87.2393 8.37242 85.8896 9.51568 85.4015 11.3445H92.7265ZM95.972 13.7735H85.2863C85.6306 16.0315 87.182 17.4021 89.4512 17.4021C91.0307 17.4021 92.4676 16.7171 93.1281 15.6303L95.6844 17.2603C94.6503 19.1455 92.2945 20.2882 89.394 20.2882C85.3436 20.2882 82.0981 17.1172 82.0981 12.9449C82.0981 8.88707 85.2863 5.74341 89.3367 5.74341C93.1281 5.74341 96.0871 8.65854 96.0871 12.4017C96.0871 12.7739 96.0579 13.3455 95.972 13.7735Z" fill="white"/>
<mask id="mask1_87_575" style="mask-type:luminance" maskUnits="userSpaceOnUse" x="96" y="4" width="6" height="5">
<path d="M96.9038 4.23877H101.485V8.79696H96.9038V4.23877Z" fill="white"/>
</mask>
<g mask="url(#mask1_87_575)">
<path fill-rule="evenodd" clip-rule="evenodd" d="M98.8001 6.34033H99.2828C99.4809 6.34033 99.6265 6.19549 99.6265 6.00495C99.6265 5.82094 99.4809 5.68203 99.2828 5.68203H98.7936L98.8001 6.34033ZM99.6206 6.7137L100.307 7.77148H99.7542L99.1438 6.77128H98.8001V7.77148H98.3419V5.25287H99.2966C99.7226 5.25287 100.085 5.58647 100.085 6.00495C100.085 6.34686 99.907 6.60626 99.6206 6.7137ZM101.173 6.51781C101.173 5.42857 100.282 4.53581 99.1945 4.53581C98.1062 4.53581 97.2213 5.42857 97.2213 6.51781C97.2213 7.60765 98.1062 8.49922 99.1945 8.49922C100.282 8.49922 101.173 7.60765 101.173 6.51781ZM101.485 6.51781C101.485 7.77148 100.455 8.7972 99.1886 8.7972C97.9343 8.7972 96.9038 7.77148 96.9038 6.51781C96.9038 5.26415 97.9343 4.23901 99.1886 4.23901C100.455 4.23901 101.485 5.26415 101.485 6.51781Z" fill="white"/>
</g>
</g>
<path d="M115.759 7.09065C115.79 7.44723 115.623 7.94614 115.257 8.58739C114.906 9.21179 114.222 9.96679 113.206 10.8524C112.206 11.7367 110.819 12.6781 109.048 13.6767L108.533 13.956C108.488 13.9756 108.47 14.0396 108.48 14.1482C109.402 15.2235 110.176 16.2103 110.801 17.1085C111.442 18.0054 111.896 18.7389 112.165 19.3091C112.4 19.8509 112.533 20.3001 112.564 20.6567C112.578 20.8117 112.571 20.9139 112.544 20.9631C112.534 21.0264 112.498 21.0608 112.436 21.0663C112.343 21.0744 112.24 20.974 112.128 20.7651C111.479 19.5878 110.675 18.4396 109.718 17.3204C108.776 16.1999 107.839 15.2196 106.907 14.3795C106.479 14.1357 106.257 13.9208 106.241 13.7348C106.291 13.5898 106.412 13.462 106.606 13.3514C106.813 13.2239 107.04 13.1337 107.285 13.081C107.471 13.0648 107.649 13.1351 107.819 13.2921C107.87 13.3345 107.91 13.3544 107.941 13.3517C107.988 13.3476 108.025 13.3287 108.054 13.295C109.651 12.4522 111.064 11.4538 112.291 10.2998C113.518 9.14578 114.258 7.96405 114.511 6.7546C114.492 6.53756 114.343 6.44124 114.064 6.46565C113.134 6.54704 112.045 7.04846 110.798 7.96992C109.551 8.89139 108.343 9.99686 107.175 11.2863C106.228 12.4314 105.35 13.7346 104.541 15.1958C103.731 16.6569 103.065 18.0587 102.542 19.4011C102.268 20.0187 102.121 20.4768 102.1 20.7755C102.051 21.1078 101.964 21.2794 101.84 21.2903L101.792 21.2711C101.329 20.9835 101.079 20.6227 101.041 20.1886C100.992 19.6304 101.858 17.8285 103.638 14.7827C103.731 14.6026 103.812 14.455 103.88 14.3397C103.948 14.2244 103.995 14.1344 104.021 14.0696C104.774 12.504 105.395 11.114 105.882 9.89974C106.385 8.68409 106.73 7.72434 106.919 7.0205C106.955 6.8924 107.027 6.82361 107.135 6.81411C107.197 6.80869 107.253 6.81944 107.302 6.84638C107.45 6.92719 107.577 7.0488 107.685 7.2112C107.792 7.35809 107.855 7.54006 107.874 7.75711C107.771 8.18791 107.47 8.94844 106.972 10.0387C106.946 10.1034 106.936 10.159 106.94 10.2056C106.944 10.2521 106.961 10.274 106.992 10.2713C107.023 10.2685 107.074 10.225 107.145 10.1407C107.357 9.88784 107.876 9.38941 108.701 8.64546C109.527 7.9015 110.411 7.20706 111.354 6.56213C112.298 5.9172 113.087 5.56694 113.723 5.51132C114.219 5.46792 114.747 5.69515 115.306 6.193C115.577 6.43486 115.728 6.73407 115.759 7.09065Z" fill="white"/>
<path d="M119.714 13.095C119.722 13.188 119.643 13.3589 119.478 13.6078C119.311 13.8411 119.199 13.9992 119.144 14.0822C118.522 15.1833 118.13 15.9752 117.97 16.4579C117.948 16.5692 117.906 16.6275 117.844 16.6329C117.767 16.6397 117.708 16.5979 117.669 16.5076C117.629 16.4018 117.604 16.3024 117.596 16.2094C117.575 15.9613 117.617 15.6374 117.722 15.2376L117.741 15.1891C117.739 15.1581 117.722 15.1439 117.691 15.1466C117.66 15.1494 117.63 15.1676 117.602 15.2013C116.492 16.2669 115.724 16.9512 115.298 17.2541C114.887 17.5556 114.572 17.7159 114.355 17.7349C114.076 17.7593 113.87 17.6367 113.737 17.3672C113.62 17.0962 113.548 16.8135 113.523 16.5189C113.472 15.9453 113.603 15.2934 113.914 14.5632C114.225 13.833 114.567 13.186 114.939 12.6223C115.31 12.043 115.567 11.6691 115.708 11.5005C115.752 11.4655 115.813 11.4445 115.89 11.4377C116.014 11.4269 116.151 11.4774 116.302 11.5892C116.452 11.701 116.536 11.8577 116.554 12.0592C116.527 12.1085 116.442 12.2096 116.299 12.3627C116.172 12.5145 116.059 12.6571 115.962 12.7906C115.598 13.2755 115.222 13.8941 114.835 14.6466C114.463 15.3978 114.26 16.0248 114.226 16.5277C114.237 16.6517 114.305 16.7083 114.429 16.6974C114.615 16.6811 114.953 16.5266 115.443 16.2338C115.933 15.941 116.445 15.5447 116.979 15.0449C117.529 14.5438 118.003 13.9867 118.403 13.3737C118.539 13.1431 118.801 13.0109 119.188 12.977C119.529 12.9471 119.705 12.9865 119.714 13.095Z" fill="white"/>
<path d="M131.079 12.8271C131.106 13.1372 131.03 13.3469 130.852 13.4562C129.024 14.6941 127.531 15.5823 126.376 16.1209C126.21 16.1978 126.004 16.2471 125.756 16.2688C125.368 16.3027 125.033 16.2149 124.749 16.0054C124.463 15.7804 124.309 15.5284 124.284 15.2494C124.271 15.0943 124.28 14.9295 124.311 14.7549C124.358 14.5789 124.38 14.4755 124.378 14.4444C124.37 14.3514 124.327 14.3083 124.249 14.3151C124.063 14.3314 123.773 14.4973 123.379 14.813C122.999 15.1119 122.594 15.4832 122.164 15.9269C121.608 16.5379 121.11 17.0033 120.669 17.3231C120.597 17.3919 120.499 17.4317 120.375 17.4426C120.236 17.4548 120.132 17.4248 120.063 17.3527C119.994 17.2806 119.951 17.1516 119.935 16.9655C119.92 16.795 119.926 16.5992 119.954 16.3781C120.048 15.6668 120.296 14.8406 120.698 13.8994C121.098 12.9426 121.556 12.0121 122.071 11.1079C122.163 10.9124 122.395 10.7983 122.767 10.7658C123.108 10.7359 123.282 10.7598 123.289 10.8373C123.294 10.8993 123.283 10.9472 123.255 10.9809C122.893 11.6687 122.547 12.2691 122.217 12.7823C122.22 12.8133 122.194 12.878 122.14 12.9765C122.085 13.0594 122.024 13.1663 121.957 13.2971C121.114 14.73 120.712 15.6635 120.75 16.0975C120.759 16.2061 120.81 16.2563 120.903 16.2481C120.934 16.2454 121.232 15.9851 121.796 15.4671C122.531 14.7622 123.189 14.1657 123.772 13.6773C124.354 13.189 124.813 12.9066 125.15 12.8303C125.355 12.8436 125.531 12.8907 125.678 12.9716C125.825 13.0369 125.905 13.147 125.918 13.3021C125.929 13.4261 125.832 13.6611 125.628 14.007C125.464 14.2713 125.336 14.509 125.245 14.72C125.169 14.9142 125.14 15.1276 125.161 15.3601C125.172 15.4841 125.203 15.5751 125.255 15.6331C125.322 15.6897 125.434 15.7112 125.589 15.6976C125.759 15.6827 125.995 15.6074 126.295 15.4718C126.775 15.2423 127.46 14.8544 128.349 14.3079C129.339 13.6589 130.186 13.163 130.891 12.8202C130.934 12.7851 130.972 12.7662 131.003 12.7635C131.049 12.7594 131.075 12.7806 131.079 12.8271Z" fill="white"/>
<defs>
<clipPath id="clip0_87_575">
<rect width="101.486" height="24.9184" fill="white"/>
</clipPath>
</defs>
</svg>
