<svg width="157" height="11" viewBox="0 0 157 11" fill="none" xmlns="http://www.w3.org/2000/svg">
<path d="M-0.000193581 0.503954H5.64181V1.79195H1.35781V4.47995H5.17981V5.76796H1.35781V9.01595H5.64181V10.304H-0.000193581V0.503954ZM6.69793 0.503954H8.13993L10.9819 8.18995L13.8239 0.503954H15.2519L11.5419 10.304H10.4079L6.69793 0.503954ZM16.802 0.503954H22.444V1.79195H18.16V4.47995H21.982V5.76796H18.16V9.01595H22.444V10.304H16.802V0.503954ZM24.4651 10.304V0.503954H28.0631C28.4738 0.503954 28.8565 0.573954 29.2111 0.713954C29.5751 0.853955 29.8925 1.05462 30.1631 1.31595C30.4338 1.57729 30.6438 1.88062 30.7931 2.22595C30.9425 2.57129 31.0171 2.94462 31.0171 3.34595C31.0171 3.91529 30.8958 4.41929 30.6531 4.85795C30.4105 5.28729 30.0698 5.62329 29.6311 5.86596C29.1925 6.10862 28.6791 6.22995 28.0911 6.22995H25.8091V10.304H24.4651ZM30.0791 10.304L27.1391 5.65595H28.6371L31.7171 10.304H30.0791ZM25.8091 4.92796H27.9091C28.2545 4.92796 28.5531 4.86262 28.8051 4.73195C29.0665 4.60129 29.2671 4.41929 29.4071 4.18595C29.5565 3.94329 29.6311 3.66329 29.6311 3.34595C29.6311 3.04729 29.5565 2.78595 29.4071 2.56195C29.2671 2.32862 29.0665 2.14662 28.8051 2.01595C28.5531 1.88529 28.2545 1.81995 27.9091 1.81995H25.8091V4.92796ZM31.6948 0.503954H33.3328L35.9928 4.61995L38.6248 0.503954H40.2068L36.6508 5.97795V10.304H35.2928V5.97795L31.6948 0.503954ZM48.0326 0.503954C48.7233 0.503954 49.3626 0.625288 49.9506 0.867955C50.5386 1.10129 51.0519 1.43729 51.4906 1.87595C51.9386 2.31462 52.2839 2.83262 52.5266 3.42995C52.7693 4.01795 52.8906 4.66195 52.8906 5.36195C52.8906 6.06195 52.7693 6.71529 52.5266 7.32195C52.2839 7.92862 51.9386 8.45596 51.4906 8.90396C51.0519 9.34262 50.5386 9.68796 49.9506 9.93996C49.3626 10.1826 48.7233 10.304 48.0326 10.304H44.8966V0.503954H48.0326ZM48.1166 9.01595C48.6019 9.01595 49.0499 8.92729 49.4606 8.74995C49.8713 8.56329 50.2306 8.30662 50.5386 7.97995C50.8466 7.65329 51.0846 7.26595 51.2526 6.81795C51.4206 6.36995 51.5046 5.88462 51.5046 5.36195C51.5046 4.67129 51.3599 4.05529 51.0706 3.51395C50.7813 2.97262 50.3799 2.55262 49.8666 2.25395C49.3533 1.94595 48.7699 1.79195 48.1166 1.79195H46.2546V9.01595H48.1166ZM58.5211 0.503954L62.4551 10.304H60.9851L57.9471 2.54795L54.8811 10.304H53.4531L57.3591 0.503954H58.5211ZM60.1171 6.88795L60.5791 8.11996H55.2731L55.7491 6.88795H60.1171ZM61.6351 0.503954H63.2731L65.9331 4.61995L68.5651 0.503954H70.1471L66.5911 5.97795V10.304H65.2331V5.97795L61.6351 0.503954ZM74.8369 0.503954H76.1949V10.304H74.8369V0.503954ZM81.6259 0.363955C82.0459 0.363955 82.4613 0.424621 82.8719 0.545955C83.2826 0.657954 83.6606 0.811954 84.0059 1.00795C84.3513 1.20395 84.6266 1.43262 84.8319 1.69395L84.0339 2.74395C83.7353 2.40795 83.3573 2.14662 82.8999 1.95995C82.4519 1.76395 81.9946 1.66595 81.5279 1.66595C81.1919 1.66595 80.8886 1.72195 80.6179 1.83395C80.3473 1.94595 80.1326 2.09995 79.9739 2.29595C79.8246 2.49195 79.7499 2.72062 79.7499 2.98196C79.7499 3.32729 79.8479 3.60262 80.0439 3.80795C80.2399 4.01329 80.4966 4.18129 80.8139 4.31195C81.1313 4.43329 81.4813 4.54995 81.8639 4.66195C82.2466 4.76462 82.6246 4.88129 82.9979 5.01195C83.3806 5.13329 83.7306 5.29662 84.0479 5.50195C84.3746 5.70729 84.6313 5.97329 84.8179 6.29995C85.0139 6.62662 85.1119 7.04195 85.1119 7.54595C85.1119 8.05929 84.9719 8.53996 84.6919 8.98796C84.4213 9.42662 84.0293 9.78129 83.5159 10.052C83.0119 10.3133 82.4053 10.444 81.6959 10.444C81.2013 10.444 80.7206 10.3786 80.2539 10.248C79.7873 10.108 79.3579 9.92129 78.9659 9.68796C78.5739 9.44529 78.2333 9.17929 77.9439 8.88996L78.7979 7.88195C79.1806 8.23662 79.6053 8.53529 80.0719 8.77796C80.5479 9.02062 81.0893 9.14196 81.6959 9.14196C82.0973 9.14196 82.4473 9.07662 82.7459 8.94596C83.0539 8.80596 83.2966 8.61929 83.4739 8.38595C83.6513 8.14329 83.7399 7.86796 83.7399 7.55995C83.7399 7.23329 83.6419 6.97196 83.4459 6.77596C83.2593 6.57062 83.0073 6.41195 82.6899 6.29995C82.3726 6.17862 82.0226 6.07129 81.6399 5.97795C81.2573 5.87529 80.8746 5.76329 80.4919 5.64196C80.1093 5.51129 79.7593 5.34795 79.4419 5.15195C79.1246 4.94662 78.8679 4.68062 78.6719 4.35395C78.4853 4.01795 78.3919 3.59329 78.3919 3.07995C78.3919 2.69729 78.4713 2.34262 78.6299 2.01595C78.7886 1.67995 79.0126 1.39062 79.3019 1.14795C79.6006 0.895954 79.9459 0.704621 80.3379 0.573954C80.7299 0.433954 81.1593 0.363955 81.6259 0.363955ZM93.7563 0.503954C94.4469 0.503954 95.0863 0.625288 95.6743 0.867955C96.2623 1.10129 96.7756 1.43729 97.2143 1.87595C97.6623 2.31462 98.0076 2.83262 98.2503 3.42995C98.4929 4.01795 98.6143 4.66195 98.6143 5.36195C98.6143 6.06195 98.4929 6.71529 98.2503 7.32195C98.0076 7.92862 97.6623 8.45596 97.2143 8.90396C96.7756 9.34262 96.2623 9.68796 95.6743 9.93996C95.0863 10.1826 94.4469 10.304 93.7563 10.304H90.6203V0.503954H93.7563ZM93.8403 9.01595C94.3256 9.01595 94.7736 8.92729 95.1843 8.74995C95.5949 8.56329 95.9543 8.30662 96.2623 7.97995C96.5703 7.65329 96.8083 7.26595 96.9763 6.81795C97.1443 6.36995 97.2283 5.88462 97.2283 5.36195C97.2283 4.67129 97.0836 4.05529 96.7943 3.51395C96.5049 2.97262 96.1036 2.55262 95.5903 2.25395C95.0769 1.94595 94.4936 1.79195 93.8403 1.79195H91.9783V9.01595H93.8403ZM104.245 0.503954L108.179 10.304H106.709L103.671 2.54795L100.605 10.304H99.1768L103.083 0.503954H104.245ZM105.841 6.88795L106.303 8.11996H100.997L101.473 6.88795H105.841ZM107.359 0.503954H108.997L111.657 4.61995L114.289 0.503954H115.871L112.315 5.97795V10.304H110.957V5.97795L107.359 0.503954ZM124.999 0.363955C125.699 0.363955 126.347 0.494621 126.945 0.755955C127.551 1.00795 128.079 1.36262 128.527 1.81995C128.975 2.26795 129.325 2.79529 129.577 3.40195C129.829 4.00862 129.955 4.66662 129.955 5.37595C129.955 6.09462 129.829 6.76195 129.577 7.37795C129.325 7.99395 128.975 8.53062 128.527 8.98796C128.079 9.44529 127.551 9.80462 126.945 10.066C126.347 10.318 125.699 10.444 124.999 10.444C124.299 10.444 123.645 10.318 123.039 10.066C122.441 9.80462 121.919 9.44529 121.471 8.98796C121.023 8.53062 120.673 7.99395 120.421 7.37795C120.169 6.76195 120.043 6.09462 120.043 5.37595C120.043 4.66662 120.169 4.00862 120.421 3.40195C120.673 2.79529 121.023 2.26795 121.471 1.81995C121.919 1.36262 122.441 1.00795 123.039 0.755955C123.645 0.494621 124.299 0.363955 124.999 0.363955ZM124.999 1.66595C124.495 1.66595 124.023 1.75929 123.585 1.94596C123.155 2.13262 122.777 2.39862 122.451 2.74395C122.133 3.07995 121.881 3.47195 121.695 3.91995C121.517 4.36795 121.429 4.85329 121.429 5.37595C121.429 5.90795 121.517 6.40262 121.695 6.85995C121.881 7.31729 122.133 7.71862 122.451 8.06395C122.777 8.39995 123.155 8.66595 123.585 8.86195C124.023 9.04862 124.495 9.14196 124.999 9.14196C125.503 9.14196 125.969 9.04862 126.399 8.86195C126.837 8.66595 127.215 8.39995 127.533 8.06395C127.859 7.71862 128.111 7.31729 128.289 6.85995C128.475 6.40262 128.569 5.90795 128.569 5.37595C128.569 4.85329 128.475 4.36795 128.289 3.91995C128.111 3.47195 127.859 3.07995 127.533 2.74395C127.215 2.39862 126.837 2.13262 126.399 1.94596C125.969 1.75929 125.503 1.66595 124.999 1.66595ZM131.901 0.503954H133.119L138.187 7.75595V0.503954H139.545V10.304H138.341L133.259 3.06595V10.304H131.901V0.503954ZM142.011 0.503954H147.653V1.79195H143.369V4.47995H147.191V5.76796H143.369V9.01595H147.653V10.304H142.011V0.503954ZM152.838 7.05595C152.185 7.05595 151.592 6.90195 151.06 6.59395C150.528 6.27662 150.104 5.85195 149.786 5.31995C149.478 4.77862 149.324 4.18129 149.324 3.52795C149.324 2.86529 149.478 2.26795 149.786 1.73595C150.104 1.20395 150.528 0.783955 151.06 0.475955C151.592 0.158621 152.185 -4.57764e-05 152.838 -4.57764e-05C153.501 -4.57764e-05 154.098 0.158621 154.63 0.475955C155.172 0.783955 155.596 1.20395 155.904 1.73595C156.222 2.26795 156.38 2.86529 156.38 3.52795C156.38 4.18129 156.222 4.77862 155.904 5.31995C155.596 5.85195 155.172 6.27662 154.63 6.59395C154.098 6.90195 153.501 7.05595 152.838 7.05595ZM152.852 6.62195C153.431 6.62195 153.949 6.48662 154.406 6.21595C154.873 5.93595 155.242 5.56262 155.512 5.09595C155.783 4.61995 155.918 4.09729 155.918 3.52795C155.918 2.94929 155.783 2.42662 155.512 1.95995C155.242 1.49329 154.873 1.12462 154.406 0.853955C153.94 0.573955 153.422 0.433954 152.852 0.433954C152.283 0.433954 151.765 0.573955 151.298 0.853955C150.841 1.12462 150.477 1.49329 150.206 1.95995C149.936 2.42662 149.8 2.94929 149.8 3.52795C149.8 4.09729 149.936 4.61995 150.206 5.09595C150.477 5.56262 150.841 5.93595 151.298 6.21595C151.765 6.48662 152.283 6.62195 152.852 6.62195ZM151.55 5.47395V1.55396H152.978C153.342 1.55396 153.641 1.66596 153.874 1.88995C154.117 2.10462 154.238 2.38462 154.238 2.72995C154.238 3.06596 154.122 3.34595 153.888 3.56995C153.655 3.79395 153.352 3.90595 152.978 3.90595H152.166V5.47395H151.55ZM153.776 5.47395L152.628 3.62595H153.328L154.504 5.47395H153.776ZM152.992 3.35995C153.179 3.35995 153.333 3.29929 153.454 3.17796C153.585 3.05662 153.65 2.90729 153.65 2.72995C153.65 2.55262 153.585 2.40329 153.454 2.28195C153.333 2.16062 153.179 2.09995 152.992 2.09995H152.166V3.35995H152.992Z" fill="#2F2F2F"/>
</svg>
