<svg width="106" height="17" viewBox="0 0 106 17" fill="none" xmlns="http://www.w3.org/2000/svg">
<path d="M42.5052 14.14C41.8145 14.14 41.1705 14.014 40.5732 13.762C39.9758 13.5007 39.4532 13.1413 39.0052 12.684C38.5572 12.2267 38.2072 11.69 37.9552 11.074C37.7125 10.458 37.5912 9.79533 37.5912 9.086C37.5912 8.37667 37.7125 7.71867 37.9552 7.112C38.2072 6.496 38.5572 5.95933 39.0052 5.502C39.4532 5.04467 39.9758 4.69 40.5732 4.438C41.1798 4.186 41.8285 4.06 42.5192 4.06C43.1538 4.06 43.7558 4.16267 44.3252 4.368C44.9038 4.564 45.4032 4.83933 45.8232 5.194C46.2525 5.54867 46.5605 5.95933 46.7472 6.426L45.4732 7.014C45.3238 6.678 45.0998 6.38867 44.8012 6.146C44.5118 5.894 44.1665 5.70267 43.7652 5.572C43.3732 5.432 42.9578 5.362 42.5192 5.362C42.0152 5.362 41.5485 5.46 41.1192 5.656C40.6898 5.84267 40.3118 6.104 39.9852 6.44C39.6678 6.776 39.4158 7.168 39.2292 7.616C39.0518 8.064 38.9632 8.554 38.9632 9.086C38.9632 9.618 39.0518 10.1127 39.2292 10.57C39.4158 11.018 39.6725 11.4147 39.9992 11.76C40.3352 12.096 40.7225 12.362 41.1612 12.558C41.5998 12.7447 42.0805 12.838 42.6032 12.838C43.0605 12.838 43.4805 12.7633 43.8632 12.614C44.2458 12.4553 44.5772 12.2453 44.8572 11.984C45.1465 11.7133 45.3658 11.4007 45.5152 11.046C45.6738 10.6913 45.7625 10.3133 45.7812 9.912V8.666H47.1392C47.1578 8.78733 47.1672 8.918 47.1672 9.058C47.1765 9.198 47.1812 9.32867 47.1812 9.45C47.1812 10.1313 47.0645 10.7567 46.8312 11.326C46.6072 11.8953 46.2852 12.3947 45.8652 12.824C45.4452 13.244 44.9505 13.5707 44.3812 13.804C43.8118 14.028 43.1865 14.14 42.5052 14.14ZM42.6312 9.94V8.666H46.8592L46.7612 9.94H42.6312ZM49.0529 4.2H54.6949V5.488H50.4109V8.176H54.2329V9.464H50.4109V12.712H54.6949V14H49.0529V4.2ZM56.716 14V4.2H60.314C60.7247 4.2 61.1074 4.27 61.462 4.41C61.826 4.55 62.1434 4.75067 62.414 5.012C62.6847 5.27333 62.8947 5.57667 63.044 5.922C63.1934 6.26733 63.268 6.64067 63.268 7.042C63.268 7.61133 63.1467 8.11533 62.904 8.554C62.6614 8.98333 62.3207 9.31933 61.882 9.562C61.4434 9.80467 60.93 9.926 60.342 9.926H58.06V14H56.716ZM62.33 14L59.39 9.352H60.888L63.968 14H62.33ZM58.06 8.624H60.16C60.5054 8.624 60.804 8.55867 61.056 8.428C61.3174 8.29733 61.518 8.11533 61.658 7.882C61.8074 7.63933 61.882 7.35933 61.882 7.042C61.882 6.74333 61.8074 6.482 61.658 6.258C61.518 6.02467 61.3174 5.84267 61.056 5.712C60.804 5.58133 60.5054 5.516 60.16 5.516H58.06V8.624ZM65.527 14V4.2H67.137L70.637 12.026L74.221 4.2H75.593V14H74.249V6.874L71.043 14H70.049L66.885 6.874V14H65.527ZM82.1866 4.2L86.1206 14H84.6506L81.6126 6.244L78.5466 14H77.1186L81.0246 4.2H82.1866ZM83.7826 10.584L84.2446 11.816H78.9386L79.4146 10.584H83.7826ZM87.6338 4.2H88.8518L93.9198 11.452V4.2H95.2778V14H94.0738L88.9918 6.762V14H87.6338V4.2ZM96.7779 4.2H98.4159L101.076 8.316L103.708 4.2H105.29L101.734 9.674V14H100.376V9.674L96.7779 4.2Z" fill="#2F2F2F"/>
<rect width="5.03704" height="5.66667" fill="#2F2F2F"/>
<rect x="10.074" width="5.03704" height="5.66667" fill="#2F2F2F"/>
<rect x="20.1482" width="5.03704" height="5.66667" fill="#2F2F2F"/>
<rect y="11.3333" width="5.03704" height="5.66667" fill="#2F2F2F"/>
<rect x="10.074" y="11.3333" width="5.03704" height="5.66667" fill="#2F2F2F"/>
<rect x="20.1482" y="11.3333" width="5.03704" height="5.66667" fill="#2F2F2F"/>
<rect x="5.03857" y="5.66663" width="5.03704" height="5.66667" fill="#2F2F2F"/>
<rect x="15.1128" y="5.66663" width="5.03704" height="5.66667" fill="#2F2F2F"/>
</svg>
