<svg width="81" height="11" viewBox="0 0 81 11" fill="none" xmlns="http://www.w3.org/2000/svg">
<path d="M2.34451e-05 0.139941H1.63802L4.29802 4.25594L6.93002 0.139941H8.51202L4.95602 5.61394V9.93994H3.59802V5.61394L2.34451e-05 0.139941ZM13.6137 -5.91278e-05C14.3137 -5.91278e-05 14.9624 0.130608 15.5597 0.391941C16.1664 0.643941 16.6937 0.998608 17.1417 1.45594C17.5897 1.90394 17.9397 2.43127 18.1917 3.03794C18.4437 3.64461 18.5697 4.30261 18.5697 5.01194C18.5697 5.73061 18.4437 6.39794 18.1917 7.01394C17.9397 7.62994 17.5897 8.16661 17.1417 8.62394C16.6937 9.08127 16.1664 9.44061 15.5597 9.70194C14.9624 9.95394 14.3137 10.0799 13.6137 10.0799C12.9137 10.0799 12.2604 9.95394 11.6537 9.70194C11.0564 9.44061 10.5337 9.08127 10.0857 8.62394C9.63771 8.16661 9.28771 7.62994 9.03571 7.01394C8.78371 6.39794 8.65771 5.73061 8.65771 5.01194C8.65771 4.30261 8.78371 3.64461 9.03571 3.03794C9.28771 2.43127 9.63771 1.90394 10.0857 1.45594C10.5337 0.998608 11.0564 0.643941 11.6537 0.391941C12.2604 0.130608 12.9137 -5.91278e-05 13.6137 -5.91278e-05ZM13.6137 1.30194C13.1097 1.30194 12.6384 1.39527 12.1997 1.58194C11.7704 1.76861 11.3924 2.03461 11.0657 2.37994C10.7484 2.71594 10.4964 3.10794 10.3097 3.55594C10.1324 4.00394 10.0437 4.48927 10.0437 5.01194C10.0437 5.54394 10.1324 6.03861 10.3097 6.49594C10.4964 6.95327 10.7484 7.35461 11.0657 7.69994C11.3924 8.03594 11.7704 8.30194 12.1997 8.49794C12.6384 8.68461 13.1097 8.77794 13.6137 8.77794C14.1177 8.77794 14.5844 8.68461 15.0137 8.49794C15.4524 8.30194 15.8304 8.03594 16.1477 7.69994C16.4744 7.35461 16.7264 6.95327 16.9037 6.49594C17.0904 6.03861 17.1837 5.54394 17.1837 5.01194C17.1837 4.48927 17.0904 4.00394 16.9037 3.55594C16.7264 3.10794 16.4744 2.71594 16.1477 2.37994C15.8304 2.03461 15.4524 1.76861 15.0137 1.58194C14.5844 1.39527 14.1177 1.30194 13.6137 1.30194ZM24.1983 10.0799C23.4796 10.0799 22.8309 9.91194 22.2523 9.57594C21.6829 9.23994 21.2349 8.78261 20.9083 8.20394C20.5816 7.62527 20.4183 6.97194 20.4183 6.24394V0.139941H21.7763V6.24394C21.7763 6.71994 21.8789 7.14927 22.0843 7.53194C22.2989 7.91461 22.5883 8.21794 22.9523 8.44194C23.3256 8.65661 23.7409 8.76394 24.1983 8.76394C24.6649 8.76394 25.0803 8.65661 25.4443 8.44194C25.8176 8.21794 26.1069 7.91461 26.3123 7.53194C26.5269 7.14927 26.6343 6.71994 26.6343 6.24394V0.139941H27.9783V6.24394C27.9783 6.97194 27.8149 7.62527 27.4883 8.20394C27.1616 8.78261 26.7136 9.23994 26.1443 9.57594C25.5749 9.91194 24.9263 10.0799 24.1983 10.0799ZM32.676 0.139941H34.118L36.96 7.82594L39.802 0.139941H41.23L37.52 9.93994H36.386L32.676 0.139941ZM45.2969 -5.91278e-05C45.7169 -5.91278e-05 46.1322 0.0606076 46.5429 0.181941C46.9536 0.293941 47.3316 0.447941 47.6769 0.643941C48.0222 0.839941 48.2976 1.06861 48.5029 1.32994L47.7049 2.37994C47.4062 2.04394 47.0282 1.78261 46.5709 1.59594C46.1229 1.39994 45.6656 1.30194 45.1989 1.30194C44.8629 1.30194 44.5596 1.35794 44.2889 1.46994C44.0182 1.58194 43.8036 1.73594 43.6449 1.93194C43.4956 2.12794 43.4209 2.35661 43.4209 2.61794C43.4209 2.96327 43.5189 3.23861 43.7149 3.44394C43.9109 3.64927 44.1676 3.81727 44.4849 3.94794C44.8022 4.06927 45.1522 4.18594 45.5349 4.29794C45.9176 4.40061 46.2956 4.51727 46.6689 4.64794C47.0516 4.76927 47.4016 4.93261 47.7189 5.13794C48.0456 5.34327 48.3022 5.60927 48.4889 5.93594C48.6849 6.26261 48.7829 6.67794 48.7829 7.18194C48.7829 7.69527 48.6429 8.17594 48.3629 8.62394C48.0922 9.06261 47.7002 9.41727 47.1869 9.68794C46.6829 9.94927 46.0762 10.0799 45.3669 10.0799C44.8722 10.0799 44.3916 10.0146 43.9249 9.88394C43.4582 9.74394 43.0289 9.55727 42.6369 9.32394C42.2449 9.08127 41.9042 8.81527 41.6149 8.52594L42.4689 7.51794C42.8516 7.87261 43.2762 8.17127 43.7429 8.41394C44.2189 8.65661 44.7602 8.77794 45.3669 8.77794C45.7682 8.77794 46.1182 8.71261 46.4169 8.58194C46.7249 8.44194 46.9676 8.25527 47.1449 8.02194C47.3222 7.77927 47.4109 7.50394 47.4109 7.19594C47.4109 6.86927 47.3129 6.60794 47.1169 6.41194C46.9302 6.20661 46.6782 6.04794 46.3609 5.93594C46.0436 5.81461 45.6936 5.70727 45.3109 5.61394C44.9282 5.51127 44.5456 5.39927 44.1629 5.27794C43.7802 5.14727 43.4302 4.98394 43.1129 4.78794C42.7956 4.58261 42.5389 4.31661 42.3429 3.98994C42.1562 3.65394 42.0629 3.22927 42.0629 2.71594C42.0629 2.33327 42.1422 1.97861 42.3009 1.65194C42.4596 1.31594 42.6836 1.02661 42.9729 0.783941C43.2716 0.531941 43.6169 0.340607 44.0089 0.209941C44.4009 0.0699408 44.8302 -5.91278e-05 45.2969 -5.91278e-05ZM52.8741 0.139941H54.5121L57.1721 4.25594L59.8041 0.139941H61.3861L57.8301 5.61394V9.93994H56.4721V5.61394L52.8741 0.139941ZM66.4878 -5.91278e-05C67.1878 -5.91278e-05 67.8364 0.130608 68.4338 0.391941C69.0404 0.643941 69.5678 0.998608 70.0158 1.45594C70.4638 1.90394 70.8138 2.43127 71.0658 3.03794C71.3178 3.64461 71.4438 4.30261 71.4438 5.01194C71.4438 5.73061 71.3178 6.39794 71.0658 7.01394C70.8138 7.62994 70.4638 8.16661 70.0158 8.62394C69.5678 9.08127 69.0404 9.44061 68.4338 9.70194C67.8364 9.95394 67.1878 10.0799 66.4878 10.0799C65.7878 10.0799 65.1344 9.95394 64.5278 9.70194C63.9304 9.44061 63.4078 9.08127 62.9598 8.62394C62.5118 8.16661 62.1618 7.62994 61.9098 7.01394C61.6578 6.39794 61.5318 5.73061 61.5318 5.01194C61.5318 4.30261 61.6578 3.64461 61.9098 3.03794C62.1618 2.43127 62.5118 1.90394 62.9598 1.45594C63.4078 0.998608 63.9304 0.643941 64.5278 0.391941C65.1344 0.130608 65.7878 -5.91278e-05 66.4878 -5.91278e-05ZM66.4878 1.30194C65.9838 1.30194 65.5124 1.39527 65.0738 1.58194C64.6444 1.76861 64.2664 2.03461 63.9398 2.37994C63.6224 2.71594 63.3704 3.10794 63.1838 3.55594C63.0064 4.00394 62.9178 4.48927 62.9178 5.01194C62.9178 5.54394 63.0064 6.03861 63.1838 6.49594C63.3704 6.95327 63.6224 7.35461 63.9398 7.69994C64.2664 8.03594 64.6444 8.30194 65.0738 8.49794C65.5124 8.68461 65.9838 8.77794 66.4878 8.77794C66.9918 8.77794 67.4584 8.68461 67.8878 8.49794C68.3264 8.30194 68.7044 8.03594 69.0218 7.69994C69.3484 7.35461 69.6004 6.95327 69.7778 6.49594C69.9644 6.03861 70.0578 5.54394 70.0578 5.01194C70.0578 4.48927 69.9644 4.00394 69.7778 3.55594C69.6004 3.10794 69.3484 2.71594 69.0218 2.37994C68.7044 2.03461 68.3264 1.76861 67.8878 1.58194C67.4584 1.39527 66.9918 1.30194 66.4878 1.30194ZM77.0723 10.0799C76.3537 10.0799 75.705 9.91194 75.1263 9.57594C74.557 9.23994 74.109 8.78261 73.7823 8.20394C73.4557 7.62527 73.2923 6.97194 73.2923 6.24394V0.139941H74.6503V6.24394C74.6503 6.71994 74.753 7.14927 74.9583 7.53194C75.173 7.91461 75.4623 8.21794 75.8263 8.44194C76.1997 8.65661 76.615 8.76394 77.0723 8.76394C77.539 8.76394 77.9543 8.65661 78.3183 8.44194C78.6917 8.21794 78.981 7.91461 79.1863 7.53194C79.401 7.14927 79.5083 6.71994 79.5083 6.24394V0.139941H80.8523V6.24394C80.8523 6.97194 80.689 7.62527 80.3623 8.20394C80.0357 8.78261 79.5877 9.23994 79.0183 9.57594C78.449 9.91194 77.8003 10.0799 77.0723 10.0799Z" fill="#2F2F2F"/>
</svg>
