<svg width="67" height="11" viewBox="0 0 67 11" fill="none" xmlns="http://www.w3.org/2000/svg">
<path d="M2.54797 8.65194V2.33794H3.75197V8.65194H2.54797ZM-2.73287e-05 6.08994V4.88594H6.31397V6.08994H-2.73287e-05ZM12.0395 9.93994V0.139941H15.5115C16.0435 0.139941 16.5242 0.251941 16.9535 0.475941C17.3829 0.699941 17.7235 1.00327 17.9755 1.38594C18.2369 1.75927 18.3675 2.17461 18.3675 2.63194C18.3675 2.96794 18.2975 3.28527 18.1575 3.58394C18.0269 3.88261 17.8402 4.13927 17.5975 4.35394C17.3642 4.55927 17.0982 4.69461 16.7995 4.75994C17.1915 4.80661 17.5415 4.94661 17.8495 5.17994C18.1575 5.40394 18.4049 5.69327 18.5915 6.04794C18.7782 6.40261 18.8715 6.78994 18.8715 7.20994C18.8715 7.71394 18.7362 8.17594 18.4655 8.59594C18.2042 9.00661 17.8542 9.33327 17.4155 9.57594C16.9769 9.81861 16.4869 9.93994 15.9455 9.93994H12.0395ZM13.3835 8.65194H15.8615C16.1695 8.65194 16.4449 8.58194 16.6875 8.44194C16.9395 8.30194 17.1355 8.11061 17.2755 7.86794C17.4249 7.62527 17.4995 7.35461 17.4995 7.05594C17.4995 6.75727 17.4249 6.48661 17.2755 6.24394C17.1355 6.00127 16.9442 5.80994 16.7015 5.66994C16.4589 5.52994 16.1835 5.45994 15.8755 5.45994H13.3835V8.65194ZM13.3835 4.25594H15.4975C15.7869 4.25594 16.0435 4.19061 16.2675 4.05994C16.5009 3.92927 16.6829 3.75661 16.8135 3.54194C16.9442 3.31794 17.0095 3.07061 17.0095 2.79994C17.0095 2.52927 16.9395 2.29594 16.7995 2.09994C16.6689 1.89461 16.4869 1.73127 16.2535 1.60994C16.0295 1.48861 15.7775 1.42794 15.4975 1.42794H13.3835V4.25594ZM20.7821 0.139941H26.4241V1.42794H22.1401V4.11594H25.9621V5.40394H22.1401V8.65194H26.4241V9.93994H20.7821V0.139941ZM27.4106 0.139941H29.0486L31.7086 4.25594L34.3406 0.139941H35.9226L32.3666 5.61394V9.93994H31.0086V5.61394L27.4106 0.139941ZM41.0242 -5.91278e-05C41.7242 -5.91278e-05 42.3729 0.130608 42.9702 0.391941C43.5769 0.643941 44.1042 0.998608 44.5522 1.45594C45.0002 1.90394 45.3502 2.43127 45.6022 3.03794C45.8542 3.64461 45.9802 4.30261 45.9802 5.01194C45.9802 5.73061 45.8542 6.39794 45.6022 7.01394C45.3502 7.62994 45.0002 8.16661 44.5522 8.62394C44.1042 9.08127 43.5769 9.44061 42.9702 9.70194C42.3729 9.95394 41.7242 10.0799 41.0242 10.0799C40.3242 10.0799 39.6709 9.95394 39.0642 9.70194C38.4669 9.44061 37.9442 9.08127 37.4962 8.62394C37.0482 8.16661 36.6982 7.62994 36.4462 7.01394C36.1942 6.39794 36.0682 5.73061 36.0682 5.01194C36.0682 4.30261 36.1942 3.64461 36.4462 3.03794C36.6982 2.43127 37.0482 1.90394 37.4962 1.45594C37.9442 0.998608 38.4669 0.643941 39.0642 0.391941C39.6709 0.130608 40.3242 -5.91278e-05 41.0242 -5.91278e-05ZM41.0242 1.30194C40.5202 1.30194 40.0489 1.39527 39.6102 1.58194C39.1809 1.76861 38.8029 2.03461 38.4762 2.37994C38.1589 2.71594 37.9069 3.10794 37.7202 3.55594C37.5429 4.00394 37.4542 4.48927 37.4542 5.01194C37.4542 5.54394 37.5429 6.03861 37.7202 6.49594C37.9069 6.95327 38.1589 7.35461 38.4762 7.69994C38.8029 8.03594 39.1809 8.30194 39.6102 8.49794C40.0489 8.68461 40.5202 8.77794 41.0242 8.77794C41.5282 8.77794 41.9949 8.68461 42.4242 8.49794C42.8629 8.30194 43.2409 8.03594 43.5582 7.69994C43.8849 7.35461 44.1369 6.95327 44.3142 6.49594C44.5009 6.03861 44.5942 5.54394 44.5942 5.01194C44.5942 4.48927 44.5009 4.00394 44.3142 3.55594C44.1369 3.10794 43.8849 2.71594 43.5582 2.37994C43.2409 2.03461 42.8629 1.76861 42.4242 1.58194C41.9949 1.39527 41.5282 1.30194 41.0242 1.30194ZM47.9268 0.139941H49.1448L54.2128 7.39194V0.139941H55.5708V9.93994H54.3668L49.2848 2.70194V9.93994H47.9268V0.139941ZM61.1729 0.139941C61.8635 0.139941 62.5029 0.261274 63.0909 0.503941C63.6789 0.737274 64.1922 1.07327 64.6309 1.51194C65.0789 1.95061 65.4242 2.46861 65.6669 3.06594C65.9095 3.65394 66.0309 4.29794 66.0309 4.99794C66.0309 5.69794 65.9095 6.35127 65.6669 6.95794C65.4242 7.56461 65.0789 8.09194 64.6309 8.53994C64.1922 8.97861 63.6789 9.32394 63.0909 9.57594C62.5029 9.81861 61.8635 9.93994 61.1729 9.93994H58.0369V0.139941H61.1729ZM61.2569 8.65194C61.7422 8.65194 62.1902 8.56327 62.6009 8.38594C63.0115 8.19927 63.3709 7.94261 63.6789 7.61594C63.9869 7.28927 64.2249 6.90194 64.3929 6.45394C64.5609 6.00594 64.6449 5.52061 64.6449 4.99794C64.6449 4.30727 64.5002 3.69127 64.2109 3.14994C63.9215 2.60861 63.5202 2.18861 63.0069 1.88994C62.4935 1.58194 61.9102 1.42794 61.2569 1.42794H59.3949V8.65194H61.2569Z" fill="#2F2F2F"/>
</svg>
